<?xml version="1.0" standalone="no"?>
<!DOCTYPE svg PUBLIC "-//W3C//DTD SVG 20010904//EN"
 "http://www.w3.org/TR/2001/REC-SVG-20010904/DTD/svg10.dtd">
<svg version="1.0" xmlns="http://www.w3.org/2000/svg"
 width="500.000000pt" height="500.000000pt" viewBox="0 0 500.000000 500.000000"
 preserveAspectRatio="xMidYMid meet">
<metadata>
Created by potrace 1.14, written by Peter Selinger 2001-2017
</metadata>
<g transform="translate(0.000000,500.000000) scale(0.100000,-0.100000)"
fill="#000000" stroke="none">
<path d="M2416 4977 c-15 -16 -20 -17 -27 -6 -7 11 -9 10 -9 -3 0 -11 -8 -18
-20 -18 -10 0 -24 -9 -30 -21 -7 -12 -18 -18 -26 -15 -8 3 -13 0 -11 -7 1 -7
-4 -11 -11 -9 -8 1 -11 -2 -7 -8 3 -5 -5 -15 -19 -21 -14 -7 -23 -16 -20 -20
3 -5 -2 -9 -10 -9 -9 0 -16 -5 -16 -11 0 -5 -5 -7 -12 -3 -8 5 -9 2 -5 -9 4
-11 1 -17 -9 -17 -8 0 -12 -4 -9 -10 3 -5 0 -10 -8 -10 -8 0 -17 -9 -20 -20
-3 -11 -13 -20 -24 -20 -15 0 -16 -2 -3 -10 12 -8 10 -10 -10 -10 -20 0 -22
-2 -10 -10 13 -8 12 -10 -3 -10 -10 0 -15 -5 -12 -10 3 -6 -1 -13 -9 -16 -9
-3 -13 -10 -10 -15 3 -5 0 -9 -5 -9 -6 0 -11 -7 -11 -16 0 -8 -4 -12 -10 -9
-5 3 -10 -3 -10 -14 0 -11 -5 -23 -10 -26 -6 -4 -7 -11 -4 -17 4 -7 2 -8 -4
-4 -7 4 -12 2 -12 -4 0 -6 -4 -9 -9 -5 -6 3 -8 -4 -6 -16 3 -16 0 -19 -12 -15
-13 6 -14 4 -3 -9 7 -9 9 -15 4 -14 -21 4 -28 -2 -14 -11 10 -6 11 -10 3 -10
-7 0 -13 -7 -13 -15 0 -8 -10 -23 -22 -35 -12 -11 -16 -20 -9 -20 9 0 8 -5 -3
-16 -9 -8 -21 -25 -27 -36 -9 -16 -8 -19 3 -12 7 4 5 -2 -5 -13 -14 -16 -15
-22 -5 -27 7 -3 3 -4 -10 -2 -19 4 -21 2 -11 -10 9 -11 9 -14 0 -14 -7 0 -9
-4 -6 -10 3 -5 0 -10 -7 -10 -9 0 -9 -3 2 -10 12 -8 12 -10 -5 -10 -17 0 -17
-2 -5 -10 13 -8 8 -14 -11 -12 -3 1 -4 -9 -2 -22 3 -13 -1 -27 -8 -31 -8 -6
-10 -4 -4 5 5 9 4 11 -4 6 -9 -6 -9 -11 -1 -21 6 -7 7 -15 2 -17 -5 -1 -13
-14 -17 -27 -5 -18 -4 -22 6 -17 8 4 7 2 -2 -6 -9 -7 -14 -19 -11 -27 3 -10 0
-11 -9 -5 -11 6 -10 3 1 -11 12 -15 12 -17 1 -10 -11 6 -13 3 -9 -13 4 -12 1
-25 -4 -29 -7 -4 -8 -1 -3 7 5 9 4 11 -4 6 -9 -6 -9 -11 0 -22 9 -11 9 -14 -1
-14 -7 0 -10 -7 -6 -15 3 -10 -1 -15 -12 -16 -14 0 -14 -2 2 -8 19 -7 19 -8 1
-15 -16 -6 -17 -9 -5 -16 12 -8 12 -10 1 -10 -9 0 -12 -8 -9 -24 4 -17 1 -23
-8 -19 -10 4 -13 -3 -10 -26 2 -17 0 -31 -4 -31 -4 0 -11 -7 -14 -16 -4 -10
-2 -13 7 -8 8 5 7 2 -2 -9 -7 -9 -10 -17 -5 -17 5 0 1 -5 -10 -11 -15 -9 -16
-13 -5 -20 10 -6 7 -10 -11 -18 -14 -5 -18 -10 -10 -11 12 0 12 -3 -2 -14 -10
-7 -15 -16 -12 -19 3 -3 -4 -10 -15 -17 -12 -6 -19 -15 -16 -20 4 -6 -1 -7
-11 -3 -10 4 -15 2 -11 -4 3 -5 0 -10 -8 -10 -8 0 -12 3 -10 7 2 4 -2 7 -10 7
-8 0 -12 -4 -10 -8 3 -3 -6 -9 -20 -11 -13 -3 -22 -1 -19 3 3 5 0 9 -5 9 -6 0
-11 -4 -11 -10 0 -5 -7 -7 -15 -4 -8 4 -12 11 -8 18 5 8 3 8 -8 0 -8 -6 -22
-14 -31 -17 -13 -5 -15 -2 -11 11 5 13 4 15 -8 6 -16 -12 -29 -12 -46 -1 -7 5
-13 5 -13 0 0 -4 -5 -1 -10 7 -8 13 -10 12 -10 -4 0 -18 -1 -18 -19 3 -14 16
-21 18 -24 9 -4 -10 -6 -10 -6 1 -1 10 -4 11 -15 2 -11 -9 -16 -9 -22 0 -5 8
-3 9 6 4 8 -5 11 -4 6 3 -4 6 -13 9 -21 5 -9 -3 -23 1 -32 8 -10 8 -14 9 -10
2 5 -8 1 -11 -12 -10 -15 1 -17 4 -9 14 9 11 6 12 -15 4 -18 -7 -28 -7 -33 0
-3 5 -11 8 -17 6 -7 -2 -20 2 -29 11 -13 10 -18 11 -18 3 0 -7 -5 -9 -10 -6
-6 4 -7 11 -4 17 4 6 -1 6 -14 -1 -16 -8 -21 -7 -26 4 -3 8 -10 15 -16 15 -6
0 -8 -4 -5 -10 9 -15 -2 -12 -19 6 -9 9 -16 11 -16 4 0 -6 -5 -8 -10 -5 -6 4
-7 11 -4 17 4 6 -1 6 -14 -1 -13 -7 -22 -7 -24 -1 -2 6 -13 12 -26 15 -15 2
-20 0 -16 -7 5 -7 2 -8 -7 -2 -15 9 -33 14 -64 17 -11 1 -26 9 -33 17 -8 8
-11 9 -7 3 8 -17 -7 -17 -23 -1 -10 10 -15 10 -22 -2 -9 -13 -10 -13 -10 0 0
13 -1 13 -10 0 -9 -13 -10 -13 -10 0 0 13 -1 13 -10 0 -9 -14 -14 -7 -11 13 1
4 -7 3 -18 -3 -25 -13 -44 -13 -36 0 3 6 2 10 -4 10 -5 0 -12 -6 -15 -12 -5
-10 -7 -10 -12 0 -5 10 -9 10 -20 1 -11 -9 -14 -9 -14 0 0 7 -5 9 -10 6 -6 -4
-8 -10 -5 -15 3 -4 -4 -6 -15 -3 -11 3 -17 10 -13 17 3 6 0 6 -8 -1 -7 -7 -17
-13 -22 -13 -4 0 -5 6 -2 13 4 6 -1 3 -9 -7 -11 -14 -16 -15 -16 -6 0 9 -5 8
-16 -6 -8 -10 -13 -14 -10 -7 4 6 2 14 -4 18 -5 3 -10 2 -10 -3 0 -6 -7 -13
-16 -16 -9 -3 -12 -2 -8 5 7 12 -37 -11 -47 -24 -3 -4 -15 -9 -27 -10 -11 0
-20 -6 -19 -12 1 -5 -4 -9 -10 -7 -7 1 -13 -3 -13 -9 0 -5 -4 -7 -10 -4 -6 3
-7 -1 -4 -9 3 -9 1 -16 -6 -16 -6 0 -18 -6 -25 -14 -11 -10 -11 -16 -2 -25 9
-9 8 -11 -7 -5 -15 6 -18 4 -13 -9 4 -10 2 -16 -5 -14 -6 1 -14 -9 -18 -23 -4
-14 -12 -24 -18 -23 -6 2 -9 -7 -7 -19 3 -12 -2 -30 -11 -39 -11 -12 -12 -19
-4 -24 8 -5 5 -12 -7 -22 -10 -8 -12 -12 -5 -8 7 4 12 0 12 -9 0 -9 -6 -16
-12 -16 -9 0 -9 -3 1 -9 12 -8 12 -12 2 -25 -11 -13 -11 -16 0 -16 12 0 12 -2
0 -9 -11 -7 -11 -9 0 -14 12 -5 12 -7 0 -15 -9 -7 -10 -11 -2 -17 9 -5 9 -10
0 -21 -9 -11 -8 -14 2 -14 11 0 11 -2 -1 -10 -13 -9 -13 -10 0 -10 13 0 13 -1
0 -10 -9 -6 -10 -10 -3 -10 8 0 11 -13 9 -35 -2 -27 1 -34 11 -31 10 4 11 1 3
-14 -14 -26 -13 -30 8 -31 9 0 12 -3 6 -5 -6 -3 -9 -16 -6 -29 2 -15 9 -22 16
-18 6 4 6 0 -2 -9 -10 -13 -10 -19 4 -32 9 -10 18 -29 19 -44 3 -33 25 -82 37
-82 5 0 7 -4 3 -9 -3 -5 1 -16 9 -24 12 -11 12 -17 3 -28 -7 -8 -8 -11 -3 -7
11 10 45 -33 39 -49 -3 -7 0 -13 6 -13 6 0 11 -7 11 -16 0 -9 5 -12 12 -8 7 4
8 3 4 -4 -10 -16 12 -54 26 -46 7 5 9 1 5 -9 -3 -10 -2 -17 3 -17 6 0 10 -7
10 -15 0 -8 6 -15 13 -15 9 0 9 -2 -1 -9 -10 -6 -8 -10 8 -14 12 -3 19 -10 15
-16 -3 -6 1 -14 9 -17 9 -3 16 -11 16 -18 0 -6 12 -22 25 -35 14 -12 22 -28
18 -35 -3 -6 -3 -8 2 -4 4 4 19 -5 31 -20 23 -25 28 -37 25 -54 0 -4 6 -5 14
-2 9 4 18 -3 24 -17 5 -13 25 -37 45 -53 20 -15 34 -31 31 -36 -2 -4 7 -12 21
-19 15 -7 22 -16 18 -23 -5 -8 -2 -9 9 -5 10 3 17 2 17 -4 0 -6 6 -7 13 -3 7
5 6 0 -3 -11 -14 -17 -13 -17 8 -11 12 4 22 4 21 -1 -1 -4 -1 -15 0 -23 1 -13
2 -13 11 0 9 13 10 13 11 0 1 -8 1 -19 0 -23 -1 -5 8 -6 19 -2 14 4 18 2 15
-7 -2 -7 8 -22 23 -33 27 -19 27 -19 12 0 -11 16 -9 15 11 -3 14 -12 30 -19
34 -15 5 5 3 0 -4 -9 -12 -16 -11 -18 3 -18 11 0 14 -4 10 -12 -5 -8 0 -7 11
2 11 9 16 10 11 3 -4 -8 -1 -13 9 -13 10 0 13 -5 9 -12 -5 -8 -2 -9 9 -5 9 3
19 1 23 -5 4 -7 3 -8 -4 -4 -11 6 -18 -20 -13 -48 1 -5 -4 -6 -12 -3 -10 4
-13 -2 -11 -18 1 -17 -2 -22 -12 -18 -9 3 -12 0 -9 -9 6 -16 -15 -63 -30 -66
-5 -1 -9 -13 -9 -27 1 -14 -3 -25 -9 -25 -6 0 -7 -3 -4 -7 4 -3 -1 -12 -11
-19 -10 -8 -12 -13 -4 -14 6 0 12 -5 12 -12 0 -6 -3 -8 -7 -5 -9 10 -35 -31
-28 -43 3 -6 2 -10 -4 -10 -5 0 -8 -9 -6 -20 2 -11 0 -18 -5 -15 -5 3 -11 1
-14 -4 -4 -5 -2 -13 4 -16 8 -5 7 -11 -1 -21 -6 -7 -16 -11 -23 -7 -6 4 -5 -1
3 -10 7 -9 9 -17 5 -17 -5 0 -15 -9 -22 -21 -8 -12 -9 -18 -3 -14 6 3 11 1 11
-4 0 -6 -5 -11 -10 -11 -6 0 -10 -8 -8 -17 2 -10 -2 -17 -8 -16 -8 1 -10 -6
-6 -19 4 -16 2 -19 -9 -13 -11 6 -11 5 -2 -5 12 -13 6 -43 -7 -35 -5 3 -6 -5
-2 -17 4 -16 2 -19 -9 -13 -12 8 -12 6 0 -8 10 -13 10 -17 1 -17 -9 0 -9 -4 1
-17 12 -15 12 -16 -5 -10 -16 6 -17 5 -6 -8 9 -11 9 -15 1 -15 -7 0 -9 -5 -6
-10 4 -6 1 -18 -6 -26 -10 -13 -10 -17 2 -25 12 -7 12 -9 -1 -9 -12 0 -12 -2
-2 -9 11 -6 10 -10 -3 -15 -14 -5 -15 -9 -5 -21 10 -12 10 -15 -1 -15 -11 0
-11 -2 1 -10 12 -8 12 -10 -5 -10 -18 -1 -18 -2 -3 -11 18 -10 14 -37 -6 -51
-7 -5 -7 -8 2 -8 6 0 12 -5 12 -11 0 -5 -4 -8 -9 -5 -11 7 -9 -13 2 -32 5 -7
4 -12 -2 -12 -6 0 -11 -5 -11 -11 0 -5 4 -8 8 -5 5 3 9 -1 9 -9 0 -8 -4 -12
-8 -10 -9 6 -6 -16 4 -32 5 -8 3 -13 -4 -13 -7 0 -4 -7 7 -15 19 -15 19 -15
-1 -8 -17 6 -18 5 -7 -9 10 -13 10 -17 0 -21 -10 -4 -10 -6 0 -6 6 -1 12 -7
12 -15 0 -8 -6 -17 -12 -19 -7 -3 -4 -6 7 -6 17 -1 17 -3 5 -11 -13 -9 -13
-10 0 -10 13 0 13 -1 0 -10 -11 -7 -11 -10 -2 -10 7 0 10 -5 7 -10 -4 -6 -1
-18 7 -27 9 -12 9 -15 1 -9 -7 4 -13 3 -13 -3 0 -5 4 -11 10 -13 5 -1 10 -24
11 -50 1 -26 6 -45 11 -42 4 3 8 -9 8 -26 0 -18 4 -29 10 -25 6 3 10 2 10 -4
0 -5 -4 -12 -10 -16 -5 -3 -1 -14 10 -25 22 -22 28 -56 8 -44 -8 4 -10 3 -5
-2 5 -5 14 -9 20 -9 7 0 12 -9 12 -20 0 -13 7 -19 18 -19 14 2 15 -1 6 -13 -7
-8 -8 -13 -3 -12 21 4 26 -2 14 -16 -10 -13 -9 -15 9 -15 12 0 20 -4 17 -9 -3
-5 4 -11 15 -14 11 -3 23 -14 26 -25 3 -13 12 -18 29 -16 13 1 22 -1 19 -6 -3
-4 3 -14 12 -21 14 -12 16 -12 8 0 -6 10 -4 12 4 7 7 -5 10 -15 7 -25 -5 -13
-4 -13 8 2 12 15 14 15 19 2 4 -8 13 -12 22 -9 8 3 15 1 15 -6 0 -6 4 -8 10
-5 5 3 10 1 10 -5 0 -6 5 -8 10 -5 6 4 8 11 5 16 -4 5 5 4 19 -2 14 -7 23 -16
19 -22 -3 -6 -1 -7 6 -3 6 4 9 11 6 16 -3 5 4 8 15 7 14 -1 19 -6 15 -17 -3
-10 -1 -10 9 3 10 14 15 15 19 5 4 -10 6 -9 6 2 1 13 2 13 11 0 8 -13 11 -13
22 -1 11 11 11 13 -1 6 -10 -6 -12 -4 -7 4 6 9 11 9 22 0 8 -6 14 -7 14 -2 0
8 17 12 63 13 11 1 15 6 10 13 -4 7 2 5 12 -3 10 -8 16 -10 12 -3 -8 13 26 37
37 26 3 -3 6 0 6 8 0 11 2 11 10 -1 8 -13 10 -12 10 4 0 15 3 16 15 6 13 -11
14 -10 10 3 -4 8 -1 18 6 23 8 4 10 3 5 -4 -4 -7 -2 -12 3 -12 6 0 11 5 11 11
0 6 7 8 16 5 14 -5 15 -4 5 8 -10 12 -8 13 10 9 14 -4 20 -2 16 4 -8 13 40 36
55 27 7 -4 8 -2 4 5 -4 6 0 14 8 17 9 3 13 11 9 17 -3 6 -1 7 6 3 12 -8 64 28
54 38 -3 3 1 6 11 6 9 0 14 5 11 10 -3 6 4 10 16 10 12 0 20 3 16 6 -8 8 16
33 26 27 4 -2 7 1 7 7 0 6 5 8 13 4 7 -5 6 0 -3 11 -8 10 -10 16 -3 12 6 -4
14 -3 18 3 4 6 11 8 16 5 5 -3 6 1 3 10 -4 9 -2 15 3 13 10 -3 73 58 66 65 -2
3 10 9 26 15 17 6 31 14 31 17 0 3 -6 3 -13 0 -6 -4 -3 0 7 9 10 8 23 13 29 9
6 -3 7 -1 3 5 -3 6 3 16 14 22 11 6 18 15 15 21 -6 8 8 13 27 10 5 0 7 2 7 7
-3 19 2 33 11 27 6 -3 10 1 10 10 0 10 5 13 12 9 8 -5 9 -2 5 10 -4 9 -3 14 2
11 5 -3 16 4 24 15 7 11 17 17 20 13 4 -3 7 -1 7 5 0 14 56 72 70 72 5 0 10 6
10 14 0 8 7 17 16 20 8 3 12 11 8 17 -4 8 -3 9 4 5 7 -4 12 -2 12 4 0 6 4 9 9
6 5 -3 11 0 14 8 3 7 17 16 31 18 14 3 23 1 20 -3 -8 -13 10 -11 25 3 9 8 11
8 8 2 -9 -15 20 -27 29 -12 5 7 2 8 -6 3 -9 -5 -11 -4 -6 4 6 9 11 9 21 1 8
-7 19 -9 25 -5 5 3 10 1 10 -4 0 -15 30 -14 30 2 0 7 4 6 10 -4 6 -11 20 -15
40 -13 22 3 29 0 24 -9 -5 -9 -4 -9 7 0 16 16 33 17 23 2 -5 -8 -1 -8 14 0 14
7 23 8 27 1 3 -5 11 -10 16 -10 6 0 7 5 3 11 -3 6 4 5 17 -3 13 -8 41 -14 61
-13 26 2 36 -1 31 -9 -3 -7 -1 -6 7 1 11 10 17 10 29 0 12 -10 13 -9 6 2 -6
11 -4 13 7 8 9 -3 21 0 27 6 9 9 10 8 5 -7 -6 -16 -4 -18 10 -13 10 4 20 7 22
7 3 0 2 6 -2 13 -5 8 -2 8 9 -2 9 -7 17 -10 17 -5 0 4 5 3 12 -4 6 -6 17 -8
27 -3 9 5 24 7 34 6 9 -2 15 1 12 5 -3 5 -1 11 5 15 5 3 10 1 10 -4 0 -6 10
-11 22 -11 12 0 19 -3 15 -6 -3 -3 5 -17 19 -31 13 -13 24 -28 24 -34 0 -6 4
-7 10 -4 5 3 10 1 10 -6 0 -6 14 -25 30 -41 17 -15 30 -32 30 -37 0 -5 9 -13
20 -16 11 -3 20 -11 20 -17 0 -6 7 -18 15 -27 47 -52 79 -81 89 -81 7 0 6 -3
-2 -8 -9 -6 -5 -12 13 -22 14 -7 25 -20 25 -28 0 -9 3 -12 6 -9 9 9 45 -33 38
-44 -3 -5 1 -6 9 -3 17 6 47 -21 47 -43 0 -9 3 -14 6 -10 8 8 34 -18 34 -33 0
-6 5 -8 10 -5 6 3 10 1 10 -5 0 -6 5 -8 10 -5 6 4 9 1 8 -7 -2 -7 3 -12 9 -11
7 2 12 0 12 -5 -3 -20 3 -30 19 -28 9 0 16 -5 14 -12 -1 -8 2 -11 8 -7 5 3 13
-1 16 -9 3 -9 10 -13 15 -10 5 3 9 0 9 -6 0 -6 5 -8 12 -4 8 5 9 2 4 -11 -5
-14 -4 -16 8 -6 11 9 15 7 19 -10 4 -14 11 -20 21 -16 8 3 17 -1 20 -9 3 -8
12 -14 21 -14 8 0 15 -5 15 -11 0 -5 4 -8 9 -4 5 3 16 -2 24 -10 12 -11 17
-12 20 -2 3 7 6 5 6 -5 1 -11 6 -15 16 -12 9 4 18 -1 21 -11 5 -13 9 -14 15
-4 6 10 9 9 15 -4 5 -15 9 -15 22 -5 10 8 13 8 9 2 -4 -7 0 -15 9 -18 8 -3 12
-2 9 4 -9 15 2 12 19 -6 10 -9 16 -11 16 -4 0 6 7 4 17 -5 16 -16 17 -16 30 1
7 10 13 13 13 7 0 -6 16 -13 35 -15 20 -2 35 0 35 7 0 5 5 3 10 -5 5 -8 10
-10 10 -5 0 6 15 10 33 10 17 -1 41 5 51 14 16 13 18 13 11 1 -8 -13 -6 -13 8
-1 9 7 14 17 12 22 -3 4 6 6 21 3 14 -3 23 -1 20 4 -3 5 8 16 25 26 16 9 29
22 29 27 0 6 5 7 10 4 6 -3 10 1 10 10 0 10 5 13 12 9 8 -5 9 -2 5 9 -4 10 -2
16 6 14 7 -1 11 4 10 11 -2 6 5 12 15 12 14 0 15 2 2 10 -13 8 -12 10 3 10 9
0 17 7 17 16 0 9 5 12 12 8 6 -4 8 -3 4 4 -3 5 4 23 17 39 13 15 23 38 22 50
-1 12 1 22 4 21 19 -2 24 4 11 12 -10 6 -11 10 -2 10 6 0 12 11 12 25 0 14 5
25 10 25 6 0 10 5 10 11 0 5 -5 7 -11 4 -6 -4 -5 2 2 13 7 12 18 18 24 15 5
-4 2 3 -8 14 -14 16 -15 23 -6 29 8 5 10 3 4 -6 -5 -9 -4 -11 4 -6 7 5 9 16 5
28 -4 15 -3 18 6 13 9 -6 9 -3 1 14 -9 16 -9 21 0 21 8 0 8 4 1 13 -9 10 -8
19 3 35 10 14 12 23 5 27 -8 5 -7 12 2 23 10 12 10 14 1 8 -16 -9 -16 -1 -3
25 9 15 7 19 -7 19 -14 0 -15 2 -4 9 7 5 10 14 7 20 -4 6 -1 11 6 11 10 0 9 3
-2 11 -12 8 -12 12 -2 16 10 4 10 8 1 19 -9 11 -8 14 2 14 11 0 11 2 0 9 -13
8 -13 12 0 27 10 13 11 16 1 10 -10 -6 -13 -3 -11 10 2 11 0 25 -4 32 -5 7 -3
12 4 12 7 0 5 8 -7 22 -10 12 -13 18 -6 14 6 -4 12 -3 12 1 0 5 -6 15 -12 22
-11 11 -10 12 2 6 13 -8 13 -6 2 7 -7 9 -14 30 -14 47 -1 17 -5 28 -10 25 -4
-3 -8 0 -8 5 0 6 5 11 12 11 6 0 3 7 -8 16 -10 8 -12 12 -4 8 12 -7 13 -5 3 8
-7 8 -10 18 -6 21 3 4 1 7 -5 7 -7 0 -12 10 -12 23 0 13 -6 29 -12 36 -10 11
-10 13 0 7 6 -4 12 -2 12 3 0 6 -6 11 -14 11 -9 0 -12 7 -9 20 3 12 0 20 -7
20 -8 0 -11 10 -8 29 3 22 1 28 -11 23 -10 -4 -13 -1 -8 11 3 9 0 22 -7 29 -7
8 -12 21 -10 31 1 10 -4 21 -12 24 -8 3 -14 17 -14 32 0 20 -2 23 -10 11 -7
-11 -10 -7 -10 18 0 17 -5 32 -11 32 -5 0 -7 5 -4 10 3 6 1 10 -5 10 -7 0 -10
7 -6 15 3 8 1 15 -4 15 -6 0 -10 9 -10 19 0 11 -4 23 -10 26 -5 3 -10 15 -10
26 0 10 -4 19 -8 19 -4 0 -9 12 -10 26 -1 15 -6 32 -12 39 -6 7 -6 15 2 23 9
9 9 12 -1 12 -7 0 -9 5 -4 13 10 16 10 38 0 60 -5 10 -4 17 3 17 5 0 9 3 9 8
-4 22 2 42 11 37 6 -3 10 1 10 9 0 8 11 23 25 34 13 11 22 22 19 24 -2 3 2 11
11 18 13 11 15 10 9 -6 -5 -18 -5 -18 7 1 16 24 71 75 82 75 4 0 5 4 2 10 -3
5 3 15 15 22 11 7 20 18 20 25 0 7 5 12 12 11 6 -2 17 8 25 22 7 14 13 19 13
11 0 -22 13 -4 15 22 1 12 7 23 13 23 7 1 17 2 23 3 5 0 7 6 4 11 -3 6 -1 10
4 10 6 0 11 7 11 16 0 8 5 12 11 9 6 -4 13 2 16 14 3 12 12 21 20 21 8 0 11 5
8 10 -3 6 -1 10 5 10 6 0 9 4 5 9 -3 5 4 12 15 16 11 4 18 10 15 15 -3 5 4 14
16 20 11 7 18 14 15 17 -3 3 5 16 17 27 13 12 21 28 19 35 -3 8 0 11 6 7 5 -3
13 1 16 10 4 10 2 13 -7 8 -6 -4 -3 2 8 13 11 11 24 18 29 15 5 -3 6 0 2 6 -3
6 -1 14 5 18 8 4 7 9 -2 15 -11 7 -10 9 3 9 9 0 20 10 23 23 4 12 17 30 29 40
11 10 16 16 9 13 -14 -8 -11 20 5 36 7 7 12 18 12 26 0 7 4 11 9 8 5 -3 12 1
15 10 4 10 2 13 -7 8 -9 -6 -9 -5 0 8 7 8 10 18 6 21 -3 4 -2 7 4 7 6 0 14 7
17 16 3 8 2 12 -4 9 -6 -3 -7 1 -4 9 3 9 11 13 16 10 6 -4 8 1 4 13 -4 12 0
25 9 33 12 10 13 16 4 26 -9 11 -7 14 7 14 15 0 16 2 5 9 -8 5 -16 17 -17 25
-1 9 2 14 7 10 5 -3 6 -10 3 -16 -4 -6 -2 -8 4 -4 13 8 12 46 -1 64 -7 9 -6
11 5 7 16 -6 18 20 3 44 -5 10 -4 12 3 7 7 -4 12 -1 12 9 0 10 -5 14 -12 10
-7 -4 -4 1 6 9 19 15 19 16 2 16 -17 0 -17 1 -1 26 9 15 12 23 5 19 -9 -6 -11
5 -9 43 2 27 1 48 -2 46 -4 -2 -10 3 -13 12 -4 10 -2 13 7 8 6 -4 4 2 -6 13
-14 16 -15 22 -5 26 11 4 11 6 0 6 -7 1 -10 6 -7 11 3 6 1 10 -4 10 -6 0 -11
7 -11 15 0 8 -4 15 -10 15 -5 0 -10 7 -10 15 0 8 -4 15 -10 15 -5 0 -10 8 -10
17 0 9 -3 14 -6 10 -7 -7 -34 17 -34 31 0 13 -29 24 -41 16 -5 -3 -8 0 -7 7 2
7 -4 13 -12 14 -8 1 -14 7 -12 14 1 7 -2 10 -7 6 -6 -3 -24 1 -40 10 -17 8
-41 15 -56 15 -14 0 -25 5 -25 11 0 8 -6 7 -17 -2 -13 -11 -15 -11 -9 -1 6 10
3 13 -11 10 -11 -2 -27 3 -37 11 -15 12 -16 12 -9 -5 7 -18 6 -18 -19 -2 -19
13 -29 15 -34 6 -4 -7 -3 -8 4 -4 7 4 12 2 12 -4 0 -8 -7 -9 -17 -5 -30 12
-83 14 -77 3 4 -6 -3 -5 -15 1 -16 9 -21 9 -21 0 0 -8 -4 -8 -15 1 -11 9 -15
9 -15 1 0 -7 -9 -9 -25 -5 -15 4 -32 1 -40 -6 -8 -7 -24 -10 -35 -7 -14 3 -24
-1 -31 -15 -9 -16 -13 -17 -27 -6 -13 11 -14 11 -7 -1 6 -11 3 -13 -13 -9 -13
4 -27 -1 -38 -13 -9 -10 -20 -16 -25 -13 -5 2 -18 -6 -30 -20 -18 -21 -25 -23
-42 -15 -15 9 -18 8 -12 -2 6 -9 3 -11 -8 -6 -10 4 -16 2 -14 -5 1 -6 -9 -14
-23 -18 -14 -4 -24 -12 -23 -17 1 -6 -9 -10 -22 -8 -13 1 -23 -1 -20 -5 4 -7
-49 -41 -62 -39 -22 4 -43 -2 -38 -11 3 -6 -1 -7 -10 -4 -8 4 -23 0 -32 -7
-13 -11 -17 -11 -20 -1 -3 6 -9 12 -14 12 -6 0 -7 -5 -3 -12 5 -7 2 -9 -9 -5
-9 3 -18 1 -21 -6 -3 -9 -8 -8 -15 3 -8 11 -11 12 -11 2 0 -7 -4 -11 -9 -7 -5
3 -12 1 -16 -5 -4 -6 -11 -8 -16 -4 -18 11 -61 15 -54 4 3 -6 0 -7 -9 -4 -9 3
-14 10 -11 14 6 10 -15 8 -32 -3 -9 -6 -11 -3 -6 10 6 16 5 17 -12 3 -11 -9
-16 -10 -11 -2 4 7 2 12 -6 13 -27 3 -34 4 -55 17 -13 7 -23 9 -23 5 0 -4 -9
7 -20 25 -11 17 -23 32 -26 32 -4 0 0 -8 7 -17 13 -16 12 -17 -3 -5 -9 8 -15
19 -12 26 3 8 -2 16 -10 19 -9 4 -13 13 -10 21 3 8 0 17 -6 21 -8 5 -7 11 2
23 11 13 11 14 -1 7 -11 -6 -13 -4 -8 8 4 12 1 17 -10 17 -14 0 -14 2 3 15 10
8 15 15 9 14 -22 -3 -27 2 -15 16 10 12 10 15 0 15 -8 0 -10 3 -7 7 4 3 1 16
-7 29 -8 12 -12 25 -9 28 12 11 12 36 1 30 -6 -4 -8 -1 -6 7 3 8 -2 28 -10 44
-14 28 -14 29 2 16 14 -12 16 -12 10 3 -3 9 -10 16 -16 16 -5 0 -7 14 -4 30 3
19 -1 36 -11 45 -9 9 -10 15 -3 15 7 0 5 6 -4 16 -18 17 -21 28 -6 19 6 -3 10
-1 10 4 0 6 -4 11 -10 11 -5 0 -10 5 -10 11 0 5 6 7 13 3 8 -6 8 -3 -2 9 -7 9
-10 24 -7 33 4 11 2 15 -8 11 -10 -4 -13 1 -11 19 1 13 -3 24 -9 24 -6 0 -4 5
4 10 9 6 10 10 3 10 -7 0 -18 10 -24 23 -12 21 -11 21 7 7 18 -14 18 -14 3 5
-20 26 -33 55 -33 80 -1 11 -7 19 -14 17 -10 -2 -10 2 -2 18 10 19 6 25 -15
20 -5 -1 -7 2 -3 6 4 4 2 14 -5 22 -6 9 -7 13 -1 9 6 -3 11 0 11 8 0 8 -4 12
-9 9 -4 -3 -8 4 -8 15 0 12 -4 21 -10 21 -5 0 -10 7 -10 16 0 9 -8 23 -17 31
-11 9 -12 11 -3 7 10 -5 9 -1 -3 14 -11 11 -16 26 -12 31 3 6 2 11 -4 11 -14
0 -42 43 -44 68 -1 12 -6 18 -14 15 -8 -3 -13 -2 -11 3 3 14 -13 55 -20 50 -4
-2 -18 11 -32 28 l-24 31 24 -19 c14 -11 -1 5 -32 36 -31 31 -54 59 -51 62 6
6 -13 10 -30 7 -5 -1 -6 3 -2 9 3 5 1 10 -5 10 -6 0 -9 4 -5 9 3 6 -3 8 -14 6
-14 -2 -18 1 -14 11 3 9 -2 14 -17 14 -15 0 -20 5 -17 14 4 10 0 12 -14 9 -11
-3 -29 3 -41 13 -12 11 -18 13 -13 5 6 -10 4 -12 -6 -6 -20 13 -110 15 -103 3
4 -6 -3 -5 -15 1 -16 9 -21 9 -21 -1 0 -9 -3 -9 -8 -2 -4 6 -14 3 -26 -9z"/>
<path d="M3957 3663 c-4 -3 -7 -11 -7 -17 0 -6 5 -5 12 2 6 6 9 14 7 17 -3 3
-9 2 -12 -2z"/>
<path d="M1386 3612 c-3 -5 1 -9 9 -9 8 0 12 4 9 9 -3 4 -7 8 -9 8 -2 0 -6 -4
-9 -8z"/>
<path d="M4745 2890 c-3 -5 -1 -10 4 -10 6 0 11 5 11 10 0 6 -2 10 -4 10 -3 0
-8 -4 -11 -10z"/>
<path d="M3270 646 c0 -2 8 -10 18 -17 15 -13 16 -12 3 4 -13 16 -21 21 -21
13z"/>
</g>
</svg>
